<?xml version="1.0" standalone="no"?>
<!DOCTYPE svg PUBLIC "-//W3C//DTD SVG 20010904//EN"
 "http://www.w3.org/TR/2001/REC-SVG-20010904/DTD/svg10.dtd">
<svg version="1.0" xmlns="http://www.w3.org/2000/svg"
 width="3835.000000pt" height="1378.000000pt" viewBox="0 0 3835.000000 1378.000000"
 preserveAspectRatio="xMidYMid meet">

<g transform="translate(0.000000,1378.000000) scale(0.100000,-0.100000)"
fill="#000000" stroke="none">
<path d="M3280 10441 c-65 -27 -125 -83 -157 -148 -36 -75 -39 -183 -6 -254
59 -131 195 -203 333 -177 76 14 120 39 174 98 134 150 85 388 -99 474 -67 32
-175 35 -245 7z"/>
<path d="M18124 10436 c-112 -52 -174 -151 -174 -277 0 -65 4 -85 31 -137 52
-105 150 -165 269 -165 120 0 218 60 271 168 76 155 12 338 -145 411 -39 18
-68 24 -126 24 -58 0 -87 -6 -126 -24z"/>
<path d="M24760 10439 c-65 -29 -136 -103 -160 -167 -69 -184 43 -381 234
-412 147 -24 292 65 336 206 25 82 25 106 1 183 -26 82 -76 142 -153 180 -52
27 -72 31 -137 31 -55 0 -89 -6 -121 -21z"/>
<path d="M14138 9691 c-89 -56 -119 -112 -322 -601 -128 -310 -480 -1156 -778
-1875 -522 -1255 -676 -1627 -928 -2235 -365 -880 -355 -855 -404 -1025 -24
-82 -45 -157 -47 -165 -4 -13 35 -15 292 -18 l296 -2 12 27 c31 67 345 823
400 962 34 85 76 180 93 210 39 69 120 152 176 180 102 52 72 51 1262 51
l1105 0 179 -427 c165 -393 252 -599 373 -885 l46 -108 389 0 c327 0 389 2
385 14 -3 7 -23 76 -45 152 -23 79 -145 406 -282 754 -133 338 -261 665 -285
725 -24 61 -72 184 -108 275 -36 91 -85 217 -110 280 -45 114 -96 245 -262
665 -95 241 -165 419 -340 865 -64 162 -176 448 -250 635 -384 973 -479 1217
-507 1292 -30 84 -83 181 -121 221 -61 66 -147 79 -219 33z m217 -2066 c93
-226 243 -611 349 -895 42 -113 134 -360 205 -550 l129 -345 -936 -3 c-514 -1
-937 0 -939 2 -5 4 121 334 220 576 96 236 188 451 372 870 221 503 356 812
367 840 8 22 17 8 82 -140 40 -91 108 -250 151 -355z"/>
<path d="M33521 9685 c-88 -39 -250 -249 -305 -397 -20 -53 -334 -814 -699
-1690 -366 -876 -730 -1753 -812 -1948 -81 -195 -158 -380 -171 -410 -13 -30
-63 -152 -112 -270 -49 -118 -132 -318 -185 -445 -260 -627 -295 -712 -301
-732 l-7 -23 314 0 315 0 166 387 c90 214 197 469 236 568 39 99 85 203 101
232 43 74 112 147 173 182 106 61 72 60 1206 58 l1035 -2 55 -26 c113 -54 163
-126 259 -374 69 -178 171 -431 331 -822 l83 -203 389 0 388 0 -6 28 c-53 219
-87 311 -711 1897 -63 160 -141 358 -173 440 -141 359 -938 2386 -1000 2545
-225 571 -278 708 -284 734 -7 30 -141 213 -189 259 -33 31 -48 32 -96 12z
m-29 -1587 c25 -69 739 -1933 826 -2155 l40 -103 -954 0 -953 0 33 78 c122
282 299 693 361 837 40 94 187 433 325 755 139 322 259 602 268 623 8 20 18
37 22 37 3 0 18 -33 32 -72z"/>
<path d="M18245 9510 c-93 -10 -171 -18 -172 -19 -1 -1 -11 -91 -19 -176 -53
-581 -52 -3858 1 -4860 23 -441 36 -604 51 -678 5 -26 8 -28 47 -23 23 3 110
10 192 16 83 6 171 13 198 16 l47 6 0 2010 0 2010 38 -28 c20 -15 262 -203
537 -418 550 -429 881 -679 1110 -836 256 -177 455 -320 579 -416 536 -419
947 -869 1247 -1365 155 -258 321 -617 413 -897 l28 -82 179 0 179 0 31 28 32
29 13 164 c29 398 44 1094 44 2139 0 1265 -26 2354 -70 2965 -17 232 -48 435
-66 435 -17 0 -384 -41 -405 -46 l-26 -5 -7 -1842 c-8 -1914 -8 -1917 -16
-1917 -3 0 -154 133 -335 296 -732 658 -863 764 -1450 1169 -397 275 -507 354
-692 502 -502 398 -878 807 -1133 1230 -62 102 -177 326 -247 478 -24 52 -44
78 -76 103 -24 17 -53 31 -63 31 -10 -1 -95 -10 -189 -19z"/>
<path d="M3085 9498 c-12 -33 -36 -681 -45 -1188 -29 -1660 13 -4150 76 -4497
l6 -33 319 0 319 0 0 2865 0 2865 -335 0 c-260 0 -337 -3 -340 -12z"/>
<path d="M24650 6629 l0 -2882 88 7 c48 4 170 15 272 24 l185 17 6 1950 c3
1073 7 1962 8 1978 0 16 7 27 15 27 16 0 109 -70 537 -407 583 -457 828 -640
1179 -879 457 -311 722 -526 1026 -829 253 -253 432 -469 611 -740 204 -308
381 -670 509 -1041 l37 -104 46 5 c25 3 100 10 166 15 66 6 141 13 168 16 l47
6 0 2854 0 2854 -270 0 -270 0 0 -1865 0 -1865 -55 0 -55 0 -257 259 c-429
430 -740 678 -1563 1246 -283 195 -521 373 -711 531 -182 152 -499 465 -625
617 -256 311 -468 658 -609 995 l-39 92 -223 0 -223 0 0 -2881z"/>
<path d="M5320 6626 l0 -2875 53 5 c54 4 431 24 464 24 19 0 19 42 19 1783 0
1386 3 1828 13 1987 8 113 17 213 20 223 8 21 58 -18 511 -393 511 -424 679
-552 1055 -803 553 -370 843 -597 1163 -911 538 -528 898 -1084 1133 -1753 29
-81 56 -152 59 -156 4 -5 102 1 218 12 115 12 213 21 216 21 3 0 6 1280 6
2845 l0 2845 -282 0 -283 0 3 -1836 c2 -1587 0 -1835 -12 -1831 -15 6 -113 80
-881 667 -242 185 -658 500 -925 700 -267 200 -552 417 -633 483 -525 424
-907 842 -1181 1292 -76 124 -208 382 -253 493 l-22 52 -230 0 -231 0 0 -2874z"/>
</g>
</svg>
